<svg xmlns="http://www.w3.org/2000/svg" viewBox="0 0 379.17 132.18">
  <g id="Layer_2" data-name="Layer 2">
    <g id="Layer_1-2" data-name="Layer 1">
      <g>
        <path d="M107,85h13.5v53.35l-34-28.38v25.84H72.93V82.41L107,110.8Z" transform="translate(0 -7)" fill="#1f1e1d"/>
        <path d="M145.45,85h35.21V96.35H159v7.48h20.26v11H159v9.51h21.71v11.39H145.45Z" transform="translate(0 -7)" fill="#1f1e1d"/>
        <path d="M227.12,112.62,238.3,85h16.56l-27.74,54.23L199.46,85H216Z" transform="translate(0 -7)" fill="#1f1e1d"/>
        <path d="M274.38,85h35.21V96.35h-21.7v7.48h20.25v11H287.89v9.51h21.7v11.39H274.38Z" transform="translate(0 -7)" fill="#1f1e1d"/>
        <path d="M340.52,117.19a18.61,18.61,0,0,0,5.41,6.31,11.45,11.45,0,0,0,6.79,2.25,6.61,6.61,0,0,0,3.84-1,3.5,3.5,0,0,0,1.53-3.08,3.66,3.66,0,0,0-.84-2.4,8.36,8.36,0,0,0-3-2q-2.17-1-6-2.5A44,44,0,0,1,344,112.8a22.05,22.05,0,0,1-4.46-3.09,15.71,15.71,0,0,1-3.56-4.65,14.14,14.14,0,0,1-1.41-6.53,12.91,12.91,0,0,1,2.54-8.06,15.92,15.92,0,0,1,6.75-5.08,24.27,24.27,0,0,1,9.36-1.74,23.36,23.36,0,0,1,9.3,1.7A20.47,20.47,0,0,1,369,89.64a22.57,22.57,0,0,1,3.92,5.19l-10.6,5.88q-3.48-5.52-8.79-5.52a5.65,5.65,0,0,0-3.37.87,2.74,2.74,0,0,0-1.2,2.33c0,1.64,1,2.94,3.09,3.88s4.73,2,8,3.16a22.88,22.88,0,0,1,9.29,5.77,13.77,13.77,0,0,1,3.63,9.91,15.05,15.05,0,0,1-1.63,7.15,15.28,15.28,0,0,1-4.47,5.19,20.32,20.32,0,0,1-6.35,3.16,25.18,25.18,0,0,1-7.22,1,25.9,25.9,0,0,1-9.7-1.78,24.33,24.33,0,0,1-7.73-4.83,20.66,20.66,0,0,1-4.93-6.89Z" transform="translate(0 -7)" fill="#1f1e1d"/>
      </g>
      <g>
        <path d="M68,17.92V9.64h33.41v8.28H89.23V54.61H80V17.92Z" transform="translate(0 -7)" fill="#1f1e1d"/>
        <path d="M119.42,9.64h9.19V26.53h21V9.64h9.18v45h-9.18V34.82h-21V54.61h-9.19Z" transform="translate(0 -7)" fill="#1f1e1d"/>
        <path d="M181.36,9.64h9.31v45h-9.31Z" transform="translate(0 -7)" fill="#1f1e1d"/>
        <path d="M243.61,54.61l-4.69-10.22H223.44l-4.69,10.22H208.4L231.21,7,254,54.61Zm-12.4-30.39-5.59,12.91H236.8Z" transform="translate(0 -7)" fill="#1f1e1d"/>
        <path d="M291.66,37.9V30.58h22.17a28.89,28.89,0,0,1-1.22,9.7,23.28,23.28,0,0,1-4.31,8.06,20.12,20.12,0,0,1-7.16,5.5,23.2,23.2,0,0,1-9.86,2,25.94,25.94,0,0,1-9.61-1.74A22.77,22.77,0,0,1,274,49.21a21.78,21.78,0,0,1-5-7.48,25.22,25.22,0,0,1-1.77-9.61,24.36,24.36,0,0,1,1.8-9.54,21.45,21.45,0,0,1,5.11-7.39,22.91,22.91,0,0,1,7.74-4.78,27,27,0,0,1,9.64-1.67,23.27,23.27,0,0,1,11.78,2.82,23.56,23.56,0,0,1,8,7.46l-7.83,4.56a13.28,13.28,0,0,0-4.63-4.79A13.66,13.66,0,0,0,291.54,17a15.11,15.11,0,0,0-7.39,1.83,13.48,13.48,0,0,0-5.3,5.24,15.92,15.92,0,0,0-2,8.09,16.79,16.79,0,0,0,1.89,8.16,13.75,13.75,0,0,0,5.24,5.4,14.82,14.82,0,0,0,7.52,1.93c3.68,0,6.58-1,8.7-2.83a13.89,13.89,0,0,0,4.27-6.88Z" transform="translate(0 -7)" fill="#1f1e1d"/>
        <path d="M331.62,32.12a24,24,0,0,1,1.8-9.41,22.51,22.51,0,0,1,5-7.42A22.2,22.2,0,0,1,346,10.44a26.92,26.92,0,0,1,18.83,0,22.23,22.23,0,0,1,12.56,12.27,24,24,0,0,1,1.8,9.41,24.62,24.62,0,0,1-1.77,9.45,22.6,22.6,0,0,1-12.53,12.49,24.83,24.83,0,0,1-9.47,1.77,25.09,25.09,0,0,1-9.55-1.77,22.49,22.49,0,0,1-7.54-5,22.18,22.18,0,0,1-4.95-7.51A25,25,0,0,1,331.62,32.12Zm9.7,0a16.11,16.11,0,0,0,1.77,7.65A13.36,13.36,0,0,0,348,45a14.93,14.93,0,0,0,14.65,0,13.27,13.27,0,0,0,4.94-5.27,16.11,16.11,0,0,0,1.77-7.65,16.38,16.38,0,0,0-1.73-7.64,13.15,13.15,0,0,0-4.89-5.27,15,15,0,0,0-14.74,0,13.3,13.3,0,0,0-5,5.27A16,16,0,0,0,341.32,32.12Z" transform="translate(0 -7)" fill="#1f1e1d"/>
      </g>
      <rect width="25.81" height="128.77" fill="#f9423a"/>
    </g>
  </g>
</svg>
