<svg xmlns="http://www.w3.org/2000/svg" viewBox="0 0 73.85 65.77">
  <g id="Layer_2" data-name="Layer 2">
    <g id="Layer_1-2" data-name="Layer 1">
      <g>
        <g>
          <path d="M13.89,65.61a13.87,13.87,0,0,1-4,1.35A6,6,0,0,1,5,66a5.77,5.77,0,0,1-1.83-4.59,7.92,7.92,0,0,1,7.09-7.87,7.84,7.84,0,0,1,3.27.1l-.41,1.44a6.4,6.4,0,0,0-2.9-.11A5.89,5.89,0,0,0,4.93,61c0,3.33,2,5,5.05,4.51a6.08,6.08,0,0,0,2.25-.7V60.93l-2.66.41V60l4.32-.66Z" transform="translate(0 -3.62)" fill="#fff"/>
          <path d="M25.2,58.31l-5.1.78v4.73l5.68-.88v1.42L18.41,65.5V52.4l7.08-1.1v1.42l-5.39.83v4.14l5.1-.78Z" transform="translate(0 -3.62)" fill="#fff"/>
          <path d="M32,59.27,30.68,63.6l-1.75.27,4.45-13.79,2-.31,4.47,12.41-1.81.28-1.4-3.91Zm4.29-2-1.28-3.57c-.29-.81-.49-1.56-.68-2.28h0c-.2.81-.41,1.64-.66,2.47l-1.28,4Z" transform="translate(0 -3.62)" fill="#fff"/>
          <path d="M43.75,48.65A18.75,18.75,0,0,1,47,47.88c1.81-.28,3-.13,3.79.48a2.79,2.79,0,0,1,1,2.33,4.16,4.16,0,0,1-2.47,3.72v.06c1,.2,1.62,1,1.93,2.35a17.92,17.92,0,0,0,1,3.44l-1.75.27a14.59,14.59,0,0,1-.88-3c-.38-1.75-1.08-2.32-2.62-2.15l-1.59.25v5.68l-1.7.26Zm1.7,5.71,1.73-.27a3.1,3.1,0,0,0,3-2.94c0-1.7-1.22-2.25-3-2a7.54,7.54,0,0,0-1.67.42Z" transform="translate(0 -3.62)" fill="#fff"/>
        </g>
        <polygon points="55.13 55.34 0 63.61 0.34 65.77 55.47 57.5 55.13 55.34" fill="#fff"/>
        <g>
          <path d="M3.92,31.88a18.58,18.58,0,0,1,3.24-.78c1.81-.27,3-.13,3.79.49a2.79,2.79,0,0,1,1,2.33,4.16,4.16,0,0,1-2.47,3.72v.06c1,.19,1.62,1,1.93,2.35a18.17,18.17,0,0,0,1,3.44l-1.75.27a14.54,14.54,0,0,1-.88-3C9.44,39,8.74,38.44,7.2,38.62l-1.59.25v5.67l-1.69.27Zm1.69,5.7,1.73-.26a3.11,3.11,0,0,0,2.95-3c0-1.69-1.22-2.24-3-2a7.14,7.14,0,0,0-1.67.41Z" transform="translate(0 -3.62)" fill="#fff"/>
          <path d="M27.57,34.46c0,4.51-2.74,7.33-6.09,7.84s-5.89-1.77-5.89-5.74c0-4.16,2.59-7.28,6.09-7.82S27.57,30.57,27.57,34.46ZM17.4,36.25c0,2.8,1.52,5.07,4.18,4.66s4.2-3.12,4.2-6.09c0-2.61-1.36-5.12-4.18-4.69S17.4,33.37,17.4,36.25Z" transform="translate(0 -3.62)" fill="#fff"/>
          <path d="M41.68,38.38a13.62,13.62,0,0,1-4,1.34,6,6,0,0,1-4.9-1,5.81,5.81,0,0,1-1.82-4.6A7.91,7.91,0,0,1,38,26.29a7.84,7.84,0,0,1,3.27.1l-.41,1.44a6.4,6.4,0,0,0-2.9-.11,5.88,5.88,0,0,0-5.26,6.08c0,3.32,2,5,5.05,4.51a6.43,6.43,0,0,0,2.26-.7V33.7l-2.67.41V32.75l4.32-.67Z" transform="translate(0 -3.62)" fill="#fff"/>
          <path d="M48.32,33.82,47,38.15l-1.75.27,4.45-13.79,2-.32,4.47,12.41-1.8.28L53,33.1Zm4.3-2-1.29-3.57c-.29-.81-.48-1.56-.68-2.29h0c-.2.81-.41,1.64-.67,2.47l-1.28,4Z" transform="translate(0 -3.62)" fill="#fff"/>
          <path d="M60,36.13V23l1.85-.28,4.19,6a30.42,30.42,0,0,1,2.36,3.89l0,0c-.16-1.73-.2-3.32-.2-5.36V21.75l1.59-.25V34.61l-1.71.26-4.16-6a34.31,34.31,0,0,1-2.44-4l-.06,0c.09,1.64.13,3.2.13,5.38v5.6Z" transform="translate(0 -3.62)" fill="#fff"/>
        </g>
        <rect x="-0.26" y="38.5" width="74.38" height="2.29" transform="translate(-5.63 2.49) rotate(-8.8)" fill="#fff"/>
        <g>
          <path d="M6.4,9.82l-4,.62V9l9.7-1.5V8.94l-4,.62V21.22l-1.71.27Z" transform="translate(0 -3.62)" fill="#fff"/>
          <path d="M17.21,6.71V12.2l6.33-1V5.73l1.72-.26v13.1l-1.72.26V12.69l-6.33,1v6.15l-1.69.26V7Z" transform="translate(0 -3.62)" fill="#fff"/>
          <path d="M36.92,10.62l-5.1.79v4.73l5.68-.88v1.42l-7.37,1.14V4.71l7.08-1.09V5l-5.39.83V10l5.1-.79Z" transform="translate(0 -3.62)" fill="#fff"/>
        </g>
        <polygon points="40.57 12.07 0 18.3 0.25 19.91 40.82 13.68 40.57 12.07" fill="#fff"/>
      </g>
    </g>
  </g>
</svg>
